<svg width="440" height="298" viewBox="0 0 440 298" fill="none" xmlns="http://www.w3.org/2000/svg">
<path d="M440 61.2608C440 73.9514 435.841 86.3283 428.097 96.6788C420.353 107.029 409.409 114.841 396.777 119.035C396.376 119.167 395.968 119.3 395.56 119.421V57.243H311.081C311.105 56.8562 311.136 56.4695 311.172 56.0885H395.56V43.9426C395.56 43.1772 395.239 42.4432 394.668 41.902C394.097 41.3607 393.323 41.0565 392.516 41.0562H314.545C314.685 40.6694 314.831 40.2827 314.989 39.9017C320.271 26.4571 330.367 15.1999 343.513 8.09652C356.658 0.993181 372.018 -1.50461 386.908 1.03952C401.798 3.58365 415.273 11.008 424.977 22.0154C434.681 33.0228 439.999 46.9135 440 61.2608Z" fill="#F2F2F2"/>
<path d="M391.368 39.9015H5.5425C4.07292 39.9028 2.66391 40.455 1.62478 41.4369C0.585646 42.4188 0.00129088 43.7502 0 45.1389V292.186C0.0012892 293.574 0.585645 294.906 1.62478 295.888C2.66391 296.869 4.07292 297.422 5.5425 297.423H391.368C392.17 297.423 392.962 297.259 393.689 296.941C394.417 296.624 395.063 296.161 395.583 295.585C395.627 295.54 395.667 295.492 395.704 295.441C396.034 295.059 396.302 294.631 396.498 294.174C396.777 293.544 396.92 292.868 396.917 292.185V45.1389C396.916 43.7493 396.331 42.4171 395.29 41.4351C394.25 40.453 392.839 39.9014 391.368 39.9015ZM395.335 292.186C395.335 292.916 395.108 293.631 394.68 294.24C394.3 294.776 393.784 295.213 393.18 295.513C392.62 295.786 391.999 295.928 391.368 295.927H5.5425C4.49264 295.926 3.48614 295.532 2.74378 294.83C2.00142 294.129 1.58381 293.178 1.58253 292.186V45.1389C1.5838 44.1469 2.00142 43.1958 2.74378 42.4943C3.48614 41.7929 4.49264 41.3982 5.5425 41.397H391.368C392.419 41.3969 393.427 41.7909 394.171 42.4925C394.915 43.1941 395.333 44.1459 395.335 45.1389V292.186Z" fill="#3F3D56"/>
<path d="M396.122 60.8928H0.789185V62.3901H396.122V60.8928Z" fill="#3F3D56"/>
<path d="M14.2581 55.6225C16.8834 55.6225 19.0116 53.6115 19.0116 51.1309C19.0116 48.6502 16.8834 46.6392 14.2581 46.6392C11.6328 46.6392 9.50464 48.6502 9.50464 51.1309C9.50464 53.6115 11.6328 55.6225 14.2581 55.6225Z" fill="#3F3D56"/>
<path d="M27.9245 55.6225C30.5498 55.6225 32.678 53.6115 32.678 51.1309C32.678 48.6502 30.5498 46.6392 27.9245 46.6392C25.2992 46.6392 23.171 48.6502 23.171 51.1309C23.171 53.6115 25.2992 55.6225 27.9245 55.6225Z" fill="#3F3D56"/>
<path d="M41.5907 55.6225C44.216 55.6225 46.3442 53.6115 46.3442 51.1309C46.3442 48.6502 44.216 46.6392 41.5907 46.6392C38.9654 46.6392 36.8372 48.6502 36.8372 51.1309C36.8372 53.6115 38.9654 55.6225 41.5907 55.6225Z" fill="#3F3D56"/>
<path d="M176.054 188.176C171.3 185.252 168.936 178.456 170.1 172.241C171.265 166.026 175.652 160.673 180.911 158.364C183.469 157.275 186.274 156.803 189.073 156.991C191.871 157.179 194.577 158.021 196.946 159.441C201.769 162.228 208.589 163.754 210.879 169.329C212.639 173.613 210.407 182.313 208.039 186.474C205.991 190.071 202.101 191.716 198.446 192.431C194.403 193.21 190.229 193.159 186.208 192.283C182.187 191.406 178.412 189.723 175.138 187.349L176.054 188.176Z" fill="#2F2E41"/>
<path d="M173.575 221.187L169.774 227.379L169.271 228.196L168.541 229.397H157.334L158.091 228.196L160.048 225.079L164.612 217.799L169.78 219.751L173.575 221.187Z" fill="#FFB8B8"/>
<path d="M156.495 229.397L154.449 228.196L154.194 228.046L167.04 205.925C167.593 204.967 168.341 204.123 169.241 203.441C170.141 202.758 171.175 202.251 172.284 201.949C173.684 201.555 175.167 201.503 176.594 201.799C177.426 201.965 178.228 202.248 178.971 202.639C179.277 202.798 179.572 202.975 179.855 203.168C180.941 203.888 181.834 204.838 182.461 205.943C183.207 207.236 183.576 208.694 183.529 210.166C183.482 211.639 183.021 213.073 182.194 214.321L177.242 221.799L173.009 228.196L172.214 229.397H156.495Z" fill="#2F2E41"/>
<path d="M189.5 196.027C198.122 196.027 205.111 189.423 205.111 181.276C205.111 173.128 198.122 166.524 189.5 166.524C180.878 166.524 173.888 173.128 173.888 181.276C173.888 189.423 180.878 196.027 189.5 196.027Z" fill="#FFB8B8"/>
<path d="M205.172 229.397H170.079L170.238 228.97C170.149 228.712 170.066 228.454 169.99 228.196C169.907 227.925 169.837 227.649 169.774 227.379C169.204 224.864 169.206 222.264 169.78 219.751C171.719 210.754 179.454 203.444 179.454 203.444C179.588 203.348 179.721 203.258 179.855 203.168C181.005 202.372 182.254 201.71 183.573 201.198C189.319 198.945 195.345 199.852 199.394 201.018C200.804 201.421 202.182 201.916 203.519 202.501C203.989 202.711 204.244 202.843 204.244 202.843L204.644 214.381L205.127 228.196L205.172 229.397Z" fill="#6C63FF"/>
<path d="M221.406 228.196L218.723 215.307L216.016 202.309C215.903 201.772 215.621 201.28 215.207 200.898C214.793 200.515 214.266 200.26 213.695 200.165L208.026 199.24L202.75 198.381C202.241 198.294 201.717 198.341 201.234 198.516C200.751 198.69 200.328 198.987 200.01 199.372C199.614 199.839 199.397 200.419 199.394 201.018C199.394 201.388 199.474 201.753 199.629 202.093C202.381 208.159 202.432 217.763 201.733 228.196C201.701 228.592 201.676 228.995 201.644 229.397H221.66L221.406 228.196Z" fill="#2F2E41"/>
<path d="M183.573 201.198C183.456 200.761 183.226 200.358 182.904 200.026C182.582 199.693 182.177 199.442 181.726 199.294C181.275 199.146 180.793 199.107 180.322 199.179C179.851 199.251 179.407 199.433 179.028 199.708L176.594 201.798L166.627 210.375C166.317 210.639 166.073 210.965 165.915 211.33C164.79 213.871 162.597 218.886 160.048 225.078C159.635 226.087 159.21 227.126 158.771 228.195C158.618 228.592 158.453 228.994 158.288 229.397H174.712C174.846 228.994 174.979 228.592 175.113 228.195C175.844 226.015 176.556 223.877 177.242 221.799C179.251 215.763 181.062 210.279 182.461 205.943C182.848 204.741 183.202 203.632 183.522 202.615C183.672 202.155 183.689 201.666 183.573 201.198Z" fill="#2F2E41"/>
<path d="M225.092 229.397H226.154L226.008 229.061L225.62 228.196L219.639 214.784L218.723 215.307L211.375 219.505L215.145 228.196L215.666 229.397H221.66H225.092Z" fill="#FFB8B8"/>
<path d="M219.028 204.147C218.219 202.145 216.622 200.517 214.571 199.602C212.521 198.688 210.175 198.558 208.026 199.24C207.751 199.326 207.481 199.426 207.218 199.54C205.713 200.175 204.429 201.202 203.519 202.501C203.148 203.02 202.843 203.578 202.61 204.165C202.198 205.183 202.003 206.268 202.036 207.358C202.07 208.447 202.332 209.52 202.807 210.513L204.644 214.381L211.216 228.196L211.788 229.397H225.092L226.008 229.061L228.385 228.196L228.715 228.076L219.028 204.147Z" fill="#2F2E41"/>
<path d="M201.761 164.333C202.305 164.487 202.888 164.467 203.419 164.277C203.95 164.086 204.4 163.736 204.699 163.279C204.982 162.814 205.149 162.294 205.186 161.758C205.223 161.223 205.13 160.686 204.914 160.19C204.471 159.2 203.773 158.329 202.883 157.659C201.872 156.795 200.642 156.193 199.312 155.912C198.648 155.777 197.961 155.779 197.297 155.916C196.633 156.054 196.008 156.325 195.465 156.711C194.932 157.11 194.536 157.65 194.329 158.262C194.123 158.875 194.114 159.531 194.304 160.148C194.709 161.256 195.804 161.998 196.897 162.551C199.066 163.645 201.459 164.288 203.913 164.436L201.761 164.333Z" fill="#2F2E41"/>
<path d="M204.798 180.835C202.288 181.162 202.61 179.955 201.605 177.757C200.6 175.56 199.254 172.951 196.732 172.728C194.664 172.546 192.961 174.107 191.286 175.267C188.301 177.334 184.278 178.346 180.818 177.106C177.358 175.866 174.953 171.969 176.266 168.699C176.675 167.797 177.275 166.983 178.03 166.308C178.785 165.634 179.679 165.113 180.656 164.778C182.616 164.12 184.697 163.846 186.772 163.975C191.388 164.115 195.915 165.21 200.034 167.183C202.877 168.548 205.644 170.5 206.722 173.336C207.801 176.171 208.51 180.156 205.427 180.923L204.798 180.835Z" fill="#2F2E41"/>
<path d="M200.478 156.534C199.237 154.494 200.262 151.694 202.291 150.33C204.321 148.967 207.044 148.833 209.467 149.38C211.862 149.95 214.057 151.106 215.831 152.73C217.605 154.355 218.895 156.392 219.573 158.636C220.601 162.205 219.99 166.038 220.86 169.643C221.325 171.565 222.2 173.377 223.433 174.967C224.666 176.558 226.231 177.892 228.03 178.89C229.83 179.887 231.827 180.526 233.897 180.767C235.968 181.007 238.069 180.845 240.071 180.289C242.678 179.566 245.328 177.807 245.584 175.251C245.854 178.186 245.146 181.128 243.558 183.664C241.971 186.2 239.584 188.204 236.731 189.395C233.372 190.719 229.625 190.805 225.986 190.717C223.615 190.659 221.189 190.524 219.002 189.658C217.488 189.005 216.128 188.074 215 186.919C213.872 185.763 212.999 184.406 212.434 182.928C211.32 179.957 211.019 176.768 211.559 173.658C211.917 171.238 212.629 168.867 212.829 166.431C213.028 163.995 212.65 161.394 211.061 159.467C209.472 157.54 206.436 156.556 204.177 157.744C203.269 158.221 202.536 159.001 201.55 159.309C200.563 159.617 199.165 159.075 199.254 158.097L200.478 156.534Z" fill="#2F2E41"/>
<path d="M307.012 229.397L307.133 228.196L310.718 192.951C311.893 192.082 313.155 191.324 314.487 190.687C321.867 187.173 328.986 188.855 332.837 190.309C333.858 190.686 334.845 191.142 335.787 191.672L337.885 228.196L337.954 229.397H307.012Z" fill="#6C63FF"/>
<path d="M323.801 183.571C332.423 183.571 339.412 176.967 339.412 168.819C339.412 160.672 332.423 154.068 323.801 154.068C315.179 154.068 308.189 160.672 308.189 168.819C308.189 176.967 315.179 183.571 323.801 183.571Z" fill="#FFB8B8"/>
<path d="M336.468 177.814C337.628 176.659 338.398 175.203 338.681 173.632C338.963 172.062 338.745 170.448 338.053 168.995C337.362 167.542 336.229 166.316 334.798 165.473C333.368 164.63 331.704 164.209 330.019 164.262C327.86 164.33 325.826 165.165 323.766 165.778C320.643 166.781 317.312 167.065 314.05 166.604C310.769 166.123 307.808 164.471 305.777 161.988C303.845 159.48 303.243 156 304.607 153.179C306.183 149.921 309.862 148.126 313.324 146.668C314.72 146.008 316.211 145.545 317.75 145.294C318.52 145.173 319.309 145.204 320.067 145.384C320.824 145.565 321.534 145.891 322.152 146.343C323.125 147.133 323.695 148.322 324.754 149.007C325.945 149.778 327.493 149.758 328.93 149.894C332.167 150.2 335.229 151.43 337.708 153.421C340.187 155.411 341.967 158.068 342.809 161.037C343.651 164.006 343.517 167.148 342.424 170.043C341.331 172.939 339.331 175.451 336.69 177.246L336.468 177.814Z" fill="#2F2E41"/>
<path d="M316.813 196.789L314.487 190.687L314.342 190.307C314.273 190.126 314.162 189.963 314.016 189.83C313.871 189.696 313.695 189.595 313.502 189.535C313.309 189.475 313.105 189.458 312.904 189.483C312.703 189.509 312.511 189.578 312.342 189.684L309.701 191.348C309.701 191.348 292.761 191.348 291.401 200.952C291.382 201.102 291.356 201.27 291.337 201.45C291.336 201.458 291.334 201.467 291.331 201.474C291.159 202.105 287.962 213.781 285.216 228.196C285.14 228.592 285.064 228.995 284.987 229.397H321.797V229.397C322.994 214.917 322.324 201.453 316.813 196.789Z" fill="#2F2E41"/>
<path d="M360.722 228.196C358.714 213.408 355.841 201.45 355.841 201.45C355.816 201.27 355.79 201.102 355.771 200.952C354.417 191.348 337.478 191.348 337.478 191.348L334.838 189.685C334.669 189.578 334.477 189.51 334.276 189.484C334.074 189.458 333.87 189.476 333.677 189.536C333.484 189.596 333.308 189.697 333.163 189.831C333.017 189.965 332.906 190.128 332.837 190.309L330.365 196.789C324.854 201.453 324.184 214.916 325.382 229.397L325.382 229.397H360.881C360.83 228.995 360.773 228.592 360.722 228.196Z" fill="#2F2E41"/>
<path d="M62.5622 194.525L58.7866 228.196L58.6531 229.397H48.4387C48.5595 229.006 48.6802 228.604 48.8074 228.196C51.7059 218.802 55.6532 205.09 55.227 201.456C54.5597 195.786 59.2317 193.894 59.2317 193.894L59.5241 193.948L62.5622 194.525Z" fill="#6C63FF"/>
<path d="M79.0356 184.132C87.6576 184.132 94.6472 177.527 94.6472 169.38C94.6472 161.233 87.6576 154.628 79.0356 154.628C70.4135 154.628 63.4239 161.233 63.4239 169.38C63.4239 177.527 70.4135 184.132 79.0356 184.132Z" fill="#A0616A"/>
<path d="M99.2443 222.249C98.457 223.621 97.8121 225.061 97.3184 226.55C97.1341 227.078 96.9562 227.631 96.7908 228.196C96.6701 228.586 96.5621 228.988 96.4541 229.397H55.2779C55.3353 229 55.3859 228.598 55.4433 228.196C57.5473 212.489 59.2506 196.549 59.524 193.948C59.5494 193.702 59.5622 193.576 59.5622 193.576C84.2371 181.287 102.244 197.36 102.244 197.36C102.244 197.36 102.27 197.474 102.308 197.696C102.702 199.942 104.711 213.06 99.2443 222.249Z" fill="#6C63FF"/>
<path d="M97.3184 226.55L94.5726 220.988L95.2399 198.934L102.308 197.696L102.556 197.654C106.21 199.661 109.037 202.777 110.577 206.495C111.951 209.739 114.563 219.493 116.769 228.196C116.87 228.598 116.972 229.001 117.074 229.397H98.7231L98.1319 228.196L97.3184 226.55Z" fill="#6C63FF"/>
<path d="M122.432 130.295H32.1603C30.224 130.297 28.3678 131.025 26.9986 132.318C25.6294 133.612 24.8592 135.366 24.8568 137.196V222.496C24.8592 224.325 25.6294 226.079 26.9986 227.373C28.3678 228.667 30.224 229.395 32.1603 229.397H122.432C124.369 229.396 126.226 228.668 127.595 227.374C128.964 226.08 129.734 224.326 129.735 222.496V137.196C129.734 135.366 128.964 133.611 127.595 132.317C126.226 131.023 124.369 130.296 122.432 130.295ZM128.464 222.496C128.463 224.007 127.827 225.456 126.696 226.525C125.565 227.593 124.032 228.194 122.432 228.196H32.1603C30.5612 228.193 29.0283 227.592 27.8976 226.524C26.7669 225.455 26.1305 224.007 26.1281 222.496V137.196C26.1305 135.685 26.7669 134.236 27.8976 133.168C29.0283 132.099 30.5612 131.498 32.1603 131.496H122.432C124.032 131.497 125.565 132.098 126.696 133.167C127.827 134.235 128.463 135.685 128.464 137.196V222.496ZM58.7865 228.196L58.653 229.397H96.454C96.562 228.988 96.67 228.586 96.7907 228.196H58.7865Z" fill="#3F3D56"/>
<path d="M243.589 130.295H153.317C151.381 130.297 149.525 131.025 148.155 132.318C146.786 133.612 146.016 135.366 146.014 137.196V222.496C146.016 224.325 146.786 226.079 148.155 227.373C149.525 228.667 151.381 229.395 153.317 229.397H243.589C245.526 229.396 247.382 228.668 248.752 227.374C250.121 226.08 250.891 224.326 250.892 222.496V137.196C250.891 135.366 250.121 133.611 248.752 132.317C247.382 131.023 245.526 130.296 243.589 130.295ZM249.621 222.496C249.62 224.007 248.984 225.456 247.853 226.525C246.722 227.593 245.188 228.194 243.589 228.196H153.317C151.718 228.193 150.185 227.592 149.054 226.524C147.924 225.455 147.287 224.007 147.285 222.496V137.196C147.287 135.685 147.924 134.236 149.054 133.168C150.185 132.099 151.718 131.498 153.317 131.496H243.589C245.188 131.497 246.722 132.098 247.853 133.167C248.984 134.235 249.62 135.685 249.621 137.196V222.496ZM169.99 228.196C170.066 228.454 170.149 228.712 170.238 228.97L170.079 229.397H201.644C201.676 228.994 201.701 228.592 201.733 228.196H169.99Z" fill="#3F3D56"/>
<path d="M364.752 130.295H274.481C272.544 130.296 270.687 131.023 269.318 132.317C267.948 133.611 267.178 135.366 267.177 137.196V222.496C267.178 224.326 267.948 226.08 269.318 227.374C270.687 228.668 272.544 229.396 274.481 229.397H364.752C366.689 229.395 368.545 228.667 369.914 227.373C371.283 226.079 372.053 224.325 372.056 222.496V137.196C372.053 135.366 371.283 133.612 369.914 132.318C368.545 131.025 366.689 130.297 364.752 130.295ZM370.784 222.496C370.782 224.007 370.146 225.455 369.015 226.524C367.884 227.592 366.351 228.193 364.752 228.196H274.481C272.881 228.194 271.348 227.593 270.217 226.525C269.086 225.456 268.45 224.007 268.448 222.496V137.196C268.45 135.684 269.086 134.235 270.217 133.167C271.348 132.098 272.881 131.497 274.481 131.496H364.752C366.351 131.498 367.884 132.099 369.015 133.168C370.146 134.236 370.782 135.685 370.784 137.196V222.496ZM321.892 228.196C321.86 228.592 321.828 228.994 321.797 229.397H349.186C349.237 229 349.294 228.598 349.345 228.196H321.892Z" fill="#3F3D56"/>
<path d="M303.335 264.233H93.5777C92.2291 264.233 90.9357 263.727 89.9821 262.825C89.0284 261.924 88.4927 260.702 88.4927 259.428C88.4927 258.153 89.0284 256.931 89.9821 256.03C90.9357 255.129 92.2291 254.623 93.5777 254.623H303.335C304.683 254.623 305.977 255.129 306.93 256.03C307.884 256.931 308.42 258.153 308.42 259.428C308.42 260.702 307.884 261.924 306.93 262.825C305.977 263.727 304.683 264.233 303.335 264.233Z" fill="#CCCCCC"/>
<path d="M244.539 105.069H152.373C151.025 105.069 149.731 104.562 148.778 103.661C147.824 102.76 147.288 101.538 147.288 100.264C147.288 98.9893 147.824 97.7672 148.778 96.8661C149.731 95.965 151.025 95.4587 152.373 95.4587H244.539C245.888 95.4587 247.181 95.965 248.135 96.8661C249.089 97.7672 249.624 98.9893 249.624 100.264C249.624 101.538 249.089 102.76 248.135 103.661C247.181 104.562 245.888 105.069 244.539 105.069Z" fill="#6C63FF"/>
<path d="M86.5029 182.233C87.0316 182.725 87.7305 183.021 88.4715 183.066C89.2125 183.111 89.9457 182.902 90.5365 182.477C94.2159 179.9 97.446 176.692 99.3576 172.779C101.548 168.295 101.792 162.793 99.1515 158.532C96.9189 154.93 92.9767 152.605 89.0476 150.696C87.5221 149.883 85.8788 149.284 84.1699 148.92C82.4428 148.56 80.6354 148.835 79.1157 149.69C78.3723 150.131 77.7865 150.773 77.435 151.533C77.0834 152.292 76.9823 153.135 77.1449 153.949C75.2576 151.915 72.8404 150.381 70.1327 149.501C68.4277 148.871 66.5607 148.743 64.7773 149.135C62.2841 149.803 60.4638 151.896 59.4682 154.157C58.6631 155.877 58.3851 157.776 58.6658 159.638C58.8135 160.564 59.1654 161.451 59.6987 162.241C60.232 163.031 60.9348 163.706 61.7617 164.223C63.8231 165.428 66.453 165.341 68.8204 164.849C71.1878 164.357 73.4794 163.5 75.8927 163.284C78.3059 163.067 80.9932 163.636 82.4618 165.458C83.4961 166.741 83.7617 168.418 83.9938 170.016L85.2014 178.328C85.3001 179.531 85.6252 180.707 86.1611 181.801C86.254 181.959 86.3689 182.104 86.5029 182.233Z" fill="#2F2E41"/>
</svg>
